<svg width="126" height="36" viewBox="0 0 126 36" fill="none" xmlns="http://www.w3.org/2000/svg">
<rect width="126" height="36" rx="4" fill="#4478FF"/>
<path d="M17.46 23.168C14.478 23.168 12.546 21.096 12.546 17.89C12.546 14.712 14.548 12.598 17.544 12.598C19.966 12.598 21.772 14.012 22.122 16.21H20.232C19.882 15.02 18.86 14.32 17.502 14.32C15.612 14.32 14.422 15.692 14.422 17.876C14.422 20.046 15.626 21.446 17.502 21.446C18.888 21.446 19.952 20.718 20.288 19.584H22.15C21.758 21.74 19.882 23.168 17.46 23.168ZM27.845 16.056V17.638H27.215C25.983 17.638 25.213 18.296 25.213 19.64V23H23.505V16.098H25.115L25.213 17.106C25.507 16.42 26.165 15.958 27.089 15.958C27.327 15.958 27.565 15.986 27.845 16.056ZM31.8627 23.182C29.8047 23.182 28.3627 21.684 28.3627 19.542C28.3627 17.372 29.7767 15.874 31.8067 15.874C33.8787 15.874 35.1947 17.26 35.1947 19.416V19.934L29.9867 19.948C30.1127 21.166 30.7567 21.782 31.8907 21.782C32.8287 21.782 33.4447 21.418 33.6407 20.76H35.2227C34.9287 22.272 33.6687 23.182 31.8627 23.182ZM31.8207 17.274C30.8127 17.274 30.1967 17.82 30.0287 18.856H33.5007C33.5007 17.904 32.8427 17.274 31.8207 17.274ZM38.5513 23.182C37.0813 23.182 36.1853 22.328 36.1853 21.026C36.1853 19.752 37.1093 18.954 38.7473 18.828L40.8193 18.674V18.52C40.8193 17.582 40.2593 17.204 39.3913 17.204C38.3833 17.204 37.8233 17.624 37.8233 18.352H36.3673C36.3673 16.854 37.5993 15.874 39.4753 15.874C41.3373 15.874 42.4853 16.882 42.4853 18.8V23H40.9873L40.8613 21.978C40.5673 22.692 39.6293 23.182 38.5513 23.182ZM39.1113 21.894C40.1613 21.894 40.8333 21.264 40.8333 20.2V19.836L39.3913 19.948C38.3273 20.046 37.9213 20.396 37.9213 20.956C37.9213 21.586 38.3413 21.894 39.1113 21.894ZM46.4195 23H44.7115V17.512H43.3815V16.084H44.7115V13.928H46.4195V16.084H47.7635V17.512H46.4195V23ZM51.851 23.182C49.793 23.182 48.351 21.684 48.351 19.542C48.351 17.372 49.765 15.874 51.795 15.874C53.867 15.874 55.183 17.26 55.183 19.416V19.934L49.975 19.948C50.101 21.166 50.745 21.782 51.879 21.782C52.817 21.782 53.433 21.418 53.629 20.76H55.211C54.917 22.272 53.657 23.182 51.851 23.182ZM51.809 17.274C50.801 17.274 50.185 17.82 50.017 18.856H53.489C53.489 17.904 52.831 17.274 51.809 17.274ZM61.4574 23H59.5954L63.2914 12.766H65.1254L68.8214 23H66.9314L66.1054 20.634H62.2834L61.4574 23ZM63.9774 15.818L62.8154 19.122H65.5874L64.4114 15.818C64.3274 15.552 64.2294 15.244 64.2014 15.034C64.1594 15.23 64.0754 15.538 63.9774 15.818ZM69.1323 19.528C69.1323 17.386 70.5463 15.874 72.5903 15.874C74.4803 15.874 75.7683 16.924 75.9503 18.59H74.2423C74.0463 17.806 73.4723 17.4 72.6603 17.4C71.5683 17.4 70.8403 18.226 70.8403 19.528C70.8403 20.83 71.5123 21.642 72.6043 21.642C73.4583 21.642 74.0603 21.222 74.2423 20.466H75.9643C75.7543 22.076 74.4103 23.182 72.6043 23.182C70.5042 23.182 69.1323 21.726 69.1323 19.528ZM76.8295 19.528C76.8295 17.386 78.2435 15.874 80.2875 15.874C82.1775 15.874 83.4655 16.924 83.6475 18.59H81.9395C81.7435 17.806 81.1695 17.4 80.3575 17.4C79.2655 17.4 78.5375 18.226 78.5375 19.528C78.5375 20.83 79.2095 21.642 80.3015 21.642C81.1555 21.642 81.7575 21.222 81.9395 20.466H83.6615C83.4515 22.076 82.1075 23.182 80.3015 23.182C78.2015 23.182 76.8295 21.726 76.8295 19.528ZM84.5268 19.528C84.5268 17.372 86.0808 15.888 88.2228 15.888C90.3648 15.888 91.9188 17.372 91.9188 19.528C91.9188 21.684 90.3648 23.168 88.2228 23.168C86.0808 23.168 84.5268 21.684 84.5268 19.528ZM86.2348 19.528C86.2348 20.788 87.0468 21.642 88.2228 21.642C89.3988 21.642 90.2108 20.788 90.2108 19.528C90.2108 18.268 89.3988 17.414 88.2228 17.414C87.0468 17.414 86.2348 18.268 86.2348 19.528ZM97.7986 16.084H99.5066V23H97.9246L97.7986 22.076C97.3786 22.734 96.4826 23.182 95.5586 23.182C93.9626 23.182 93.0246 22.104 93.0246 20.41V16.084H94.7326V19.808C94.7326 21.124 95.2506 21.656 96.2026 21.656C97.2806 21.656 97.7986 21.026 97.7986 19.71V16.084ZM102.979 23H101.271V16.084H102.853L102.993 16.98C103.427 16.28 104.267 15.874 105.205 15.874C106.941 15.874 107.837 16.952 107.837 18.744V23H106.129V19.15C106.129 17.988 105.555 17.428 104.673 17.428C103.623 17.428 102.979 18.156 102.979 19.276V23ZM111.867 23H110.159V17.512H108.829V16.084H110.159V13.928H111.867V16.084H113.211V17.512H111.867V23Z" fill="white"/>
</svg>
