<svg width="227" height="36" viewBox="0 0 227 36" fill="none" xmlns="http://www.w3.org/2000/svg">
<rect x="0.5" y="0.5" width="226" height="35" rx="3.5" stroke="#D0D5DD"/>
<path d="M28.25 14.875L22 21.125L15.75 14.875" stroke="#1D2939" stroke-width="1.5" stroke-linecap="round" stroke-linejoin="round"/>
<path d="M42.226 12.976V23H41.218V12.976H42.226ZM45.4193 23H44.4533V16.224H45.2933L45.4333 17.4C45.8813 16.532 46.7773 16.042 47.7573 16.042C49.6193 16.042 50.3893 17.148 50.3893 18.856V23H49.4233V19.066C49.4233 17.484 48.7093 16.924 47.5893 16.924C46.2033 16.924 45.4193 17.932 45.4193 19.458V23ZM52.3146 25.954V16.224H53.1546L53.2526 17.596C53.7286 16.546 54.6806 16.042 55.8146 16.042C57.7746 16.042 58.9506 17.54 58.9506 19.584C58.9506 21.628 57.8166 23.168 55.8146 23.168C54.6666 23.168 53.7566 22.678 53.2806 21.698V25.954H52.3146ZM53.2946 19.612C53.2946 21.166 54.1626 22.3 55.6466 22.3C57.1166 22.3 57.9706 21.166 57.9706 19.612C57.9706 18.044 57.1166 16.924 55.6466 16.924C54.1626 16.924 53.2946 18.044 53.2946 19.612ZM65.0864 16.224H66.0524V23H65.2124L65.0864 21.852C64.7084 22.636 63.7704 23.168 62.7064 23.168C61.1104 23.168 60.2424 22.076 60.2424 20.424V16.21H61.2224V20.116C61.2224 21.726 61.9364 22.3 63.0144 22.3C64.3164 22.3 65.0864 21.432 65.0864 19.822V16.224ZM69.6186 23H68.6666V17.036H67.3086V16.224H68.6666V14.082H69.6186V16.224H70.9766V17.036H69.6186V23ZM75.2774 13.9V12.976H82.4594V13.9H79.3654V23H78.3574V13.9H75.2774ZM85.4398 23.168C83.4518 23.168 82.1218 21.74 82.1218 19.612C82.1218 17.498 83.4378 16.042 85.3698 16.042C87.2038 16.042 88.4498 17.344 88.4498 19.262V19.738H83.0598C83.1298 21.39 83.9978 22.342 85.4538 22.342C86.5598 22.342 87.2738 21.866 87.5258 20.97H88.4498C88.0858 22.398 87.0358 23.168 85.4398 23.168ZM85.3698 16.868C84.0958 16.868 83.2558 17.708 83.0878 19.038H87.4838C87.4838 17.736 86.6438 16.868 85.3698 16.868ZM90.0279 23H88.8939L91.3159 19.612L88.9079 16.224H90.0419L91.9599 18.94L93.8639 16.224H94.9839L92.5759 19.626L94.9699 23H93.8219L91.9179 20.284L90.0279 23ZM97.9604 23H97.0084V17.036H95.6504V16.224H97.0084V14.082H97.9604V16.224H99.3184V17.036H97.9604V23Z" fill="#1D2939"/>
<path d="M211.25 14.875L205 21.125L198.75 14.875" stroke="#1D2939" stroke-width="1.5" stroke-linecap="round" stroke-linejoin="round"/>
</svg>
