<svg width="227" height="36" viewBox="0 0 227 36" fill="none" xmlns="http://www.w3.org/2000/svg">
<rect x="0.5" y="0.5" width="226" height="35" rx="3.5" stroke="#6993FF"/>
<path d="M28.25 14.875L22 21.125L15.75 14.875" stroke="#1D2939" stroke-width="1.5" stroke-linecap="round" stroke-linejoin="round"/>
<path d="M41.778 24.19V11.898H42.576V24.19H41.778Z" fill="#1D2939"/>
<path d="M46.5737 12.976V23H45.5657V12.976H46.5737ZM49.767 23H48.801V16.224H49.641L49.781 17.4C50.229 16.532 51.125 16.042 52.105 16.042C53.967 16.042 54.737 17.148 54.737 18.856V23H53.771V19.066C53.771 17.484 53.057 16.924 51.937 16.924C50.551 16.924 49.767 17.932 49.767 19.458V23ZM56.6623 25.954V16.224H57.5023L57.6003 17.596C58.0763 16.546 59.0283 16.042 60.1623 16.042C62.1223 16.042 63.2983 17.54 63.2983 19.584C63.2983 21.628 62.1643 23.168 60.1623 23.168C59.0143 23.168 58.1043 22.678 57.6283 21.698V25.954H56.6623ZM57.6423 19.612C57.6423 21.166 58.5103 22.3 59.9943 22.3C61.4643 22.3 62.3183 21.166 62.3183 19.612C62.3183 18.044 61.4643 16.924 59.9943 16.924C58.5103 16.924 57.6423 18.044 57.6423 19.612ZM69.434 16.224H70.4V23H69.56L69.434 21.852C69.056 22.636 68.118 23.168 67.054 23.168C65.458 23.168 64.59 22.076 64.59 20.424V16.21H65.57V20.116C65.57 21.726 66.284 22.3 67.362 22.3C68.664 22.3 69.434 21.432 69.434 19.822V16.224ZM73.9663 23H73.0143V17.036H71.6563V16.224H73.0143V14.082H73.9663V16.224H75.3243V17.036H73.9663V23ZM79.625 13.9V12.976H86.807V13.9H83.713V23H82.705V13.9H79.625ZM89.7875 23.168C87.7995 23.168 86.4695 21.74 86.4695 19.612C86.4695 17.498 87.7855 16.042 89.7175 16.042C91.5515 16.042 92.7975 17.344 92.7975 19.262V19.738H87.4075C87.4775 21.39 88.3455 22.342 89.8015 22.342C90.9075 22.342 91.6215 21.866 91.8735 20.97H92.7975C92.4335 22.398 91.3835 23.168 89.7875 23.168ZM89.7175 16.868C88.4435 16.868 87.6035 17.708 87.4355 19.038H91.8315C91.8315 17.736 90.9915 16.868 89.7175 16.868ZM94.3756 23H93.2416L95.6636 19.612L93.2556 16.224H94.3896L96.3076 18.94L98.2116 16.224H99.3316L96.9236 19.626L99.3176 23H98.1696L96.2656 20.284L94.3756 23ZM102.308 23H101.356V17.036H99.9981V16.224H101.356V14.082H102.308V16.224H103.666V17.036H102.308V23Z" fill="#98A2B3"/>
<path d="M211.25 14.875L205 21.125L198.75 14.875" stroke="#1D2939" stroke-width="1.5" stroke-linecap="round" stroke-linejoin="round"/>
</svg>
