<svg width="227" height="54" viewBox="0 0 227 54" fill="none" xmlns="http://www.w3.org/2000/svg">
<rect x="0.5" y="0.5" width="226" height="35" rx="3.5" fill="#FEF6F6"/>
<rect x="0.5" y="0.5" width="226" height="35" rx="3.5" stroke="#F97066"/>
<path d="M28.25 14.875L22 21.125L15.75 14.875" stroke="#1D2939" stroke-width="1.5" stroke-linecap="round" stroke-linejoin="round"/>
<path d="M42.226 12.976V23H41.218V12.976H42.226ZM45.4193 23H44.4533V16.224H45.2933L45.4333 17.4C45.8813 16.532 46.7773 16.042 47.7573 16.042C49.6193 16.042 50.3893 17.148 50.3893 18.856V23H49.4233V19.066C49.4233 17.484 48.7093 16.924 47.5893 16.924C46.2033 16.924 45.4193 17.932 45.4193 19.458V23ZM52.3146 25.954V16.224H53.1546L53.2526 17.596C53.7286 16.546 54.6806 16.042 55.8146 16.042C57.7746 16.042 58.9506 17.54 58.9506 19.584C58.9506 21.628 57.8166 23.168 55.8146 23.168C54.6666 23.168 53.7566 22.678 53.2806 21.698V25.954H52.3146ZM53.2946 19.612C53.2946 21.166 54.1626 22.3 55.6466 22.3C57.1166 22.3 57.9706 21.166 57.9706 19.612C57.9706 18.044 57.1166 16.924 55.6466 16.924C54.1626 16.924 53.2946 18.044 53.2946 19.612ZM65.0864 16.224H66.0524V23H65.2124L65.0864 21.852C64.7084 22.636 63.7704 23.168 62.7064 23.168C61.1104 23.168 60.2424 22.076 60.2424 20.424V16.21H61.2224V20.116C61.2224 21.726 61.9364 22.3 63.0144 22.3C64.3164 22.3 65.0864 21.432 65.0864 19.822V16.224ZM69.6186 23H68.6666V17.036H67.3086V16.224H68.6666V14.082H69.6186V16.224H70.9766V17.036H69.6186V23ZM75.2774 13.9V12.976H82.4594V13.9H79.3654V23H78.3574V13.9H75.2774ZM85.4398 23.168C83.4518 23.168 82.1218 21.74 82.1218 19.612C82.1218 17.498 83.4378 16.042 85.3698 16.042C87.2038 16.042 88.4498 17.344 88.4498 19.262V19.738H83.0598C83.1298 21.39 83.9978 22.342 85.4538 22.342C86.5598 22.342 87.2738 21.866 87.5258 20.97H88.4498C88.0858 22.398 87.0358 23.168 85.4398 23.168ZM85.3698 16.868C84.0958 16.868 83.2558 17.708 83.0878 19.038H87.4838C87.4838 17.736 86.6438 16.868 85.3698 16.868ZM90.0279 23H88.8939L91.3159 19.612L88.9079 16.224H90.0419L91.9599 18.94L93.8639 16.224H94.9839L92.5759 19.626L94.9699 23H93.8219L91.9179 20.284L90.0279 23ZM97.9604 23H97.0084V17.036H95.6504V16.224H97.0084V14.082H97.9604V16.224H99.3184V17.036H97.9604V23Z" fill="#1D2939"/>
<path d="M204.375 17.375L204.409 17.3583C204.516 17.3049 204.636 17.2833 204.755 17.296C204.873 17.3086 204.986 17.3551 205.079 17.4298C205.173 17.5045 205.242 17.6043 205.281 17.7175C205.319 17.8307 205.324 17.9524 205.295 18.0683L204.705 20.4317C204.676 20.5476 204.681 20.6695 204.719 20.7828C204.757 20.8961 204.827 20.9961 204.92 21.071C205.013 21.1458 205.126 21.1923 205.245 21.205C205.364 21.2177 205.484 21.196 205.591 21.1425L205.625 21.125M212.5 18C212.5 18.9849 212.306 19.9602 211.929 20.8701C211.552 21.7801 211 22.6069 210.303 23.3033C209.607 23.9997 208.78 24.5522 207.87 24.9291C206.96 25.306 205.985 25.5 205 25.5C204.015 25.5 203.04 25.306 202.13 24.9291C201.22 24.5522 200.393 23.9997 199.697 23.3033C199 22.6069 198.448 21.7801 198.071 20.8701C197.694 19.9602 197.5 18.9849 197.5 18C197.5 16.0109 198.29 14.1032 199.697 12.6967C201.103 11.2902 203.011 10.5 205 10.5C206.989 10.5 208.897 11.2902 210.303 12.6967C211.71 14.1032 212.5 16.0109 212.5 18ZM205 14.875H205.007V14.8817H205V14.875Z" stroke="#F04438" stroke-width="1.5" stroke-linecap="round" stroke-linejoin="round"/>
<path d="M125.044 50H124.168L127.324 41.408H128.392L131.584 50H130.684L129.844 47.72H125.884L125.044 50ZM127.744 42.62L126.148 46.964H129.568L127.96 42.62C127.924 42.5 127.864 42.356 127.852 42.272C127.84 42.344 127.792 42.5 127.744 42.62ZM133.462 50H132.634V41.252H133.462V50ZM137.659 50.144C135.955 50.144 134.815 48.92 134.815 47.096C134.815 45.284 135.943 44.036 137.599 44.036C139.171 44.036 140.239 45.152 140.239 46.796V47.204H135.619C135.679 48.62 136.423 49.436 137.671 49.436C138.619 49.436 139.231 49.028 139.447 48.26H140.239C139.927 49.484 139.027 50.144 137.659 50.144ZM137.599 44.744C136.507 44.744 135.787 45.464 135.643 46.604H139.411C139.411 45.488 138.691 44.744 137.599 44.744ZM144.599 44.12V44.864H144.143C143.075 44.864 142.391 45.584 142.391 46.688V50H141.563V44.192H142.343L142.403 45.092C142.631 44.468 143.243 44.06 144.059 44.06C144.239 44.06 144.395 44.072 144.599 44.12ZM147.266 50H146.45V44.888H145.286V44.192H146.45V42.356H147.266V44.192H148.43V44.888H147.266V50ZM153.245 42.596C152.909 42.596 152.633 42.32 152.633 41.984C152.633 41.648 152.909 41.36 153.245 41.36C153.581 41.36 153.869 41.648 153.869 41.984C153.869 42.32 153.581 42.596 153.245 42.596ZM152.837 50V44.192H153.665V50H152.837ZM156.219 50H155.391V44.192H156.111L156.231 45.2C156.615 44.456 157.383 44.036 158.223 44.036C159.819 44.036 160.479 44.984 160.479 46.448V50H159.651V46.628C159.651 45.272 159.039 44.792 158.079 44.792C156.891 44.792 156.219 45.656 156.219 46.964V50ZM161.482 44.192H162.37V43.064C162.37 41.756 163.09 41.252 163.978 41.252C164.182 41.252 164.422 41.264 164.614 41.3V42.008H164.122C163.39 42.008 163.198 42.38 163.198 43.064V44.192H164.566V44.888H163.198V50H162.37V44.888H161.482V44.192ZM165.108 47.096C165.108 45.32 166.356 44.036 168.06 44.036C169.764 44.036 171.012 45.32 171.012 47.096C171.012 48.86 169.764 50.144 168.06 50.144C166.356 50.144 165.108 48.86 165.108 47.096ZM165.948 47.084C165.948 48.452 166.812 49.4 168.06 49.4C169.296 49.4 170.172 48.452 170.172 47.084C170.172 45.74 169.296 44.78 168.06 44.78C166.812 44.78 165.948 45.74 165.948 47.084ZM175.269 46.928C175.269 45.344 176.289 44.036 177.993 44.036C179.001 44.036 179.769 44.504 180.141 45.356L180.225 44.192H180.945V49.82C180.945 51.548 179.841 52.676 178.137 52.676C176.649 52.676 175.605 51.836 175.377 50.432H176.205C176.385 51.368 177.105 51.92 178.149 51.92C179.337 51.92 180.129 51.116 180.129 49.904V48.524C179.733 49.34 178.929 49.82 177.933 49.82C176.277 49.82 175.269 48.512 175.269 46.928ZM176.097 46.916C176.097 48.104 176.829 49.076 178.053 49.076C179.313 49.076 180.057 48.164 180.057 46.916C180.057 45.68 179.337 44.768 178.065 44.768C176.817 44.768 176.097 45.74 176.097 46.916ZM182.265 47.096C182.265 45.32 183.513 44.036 185.217 44.036C186.921 44.036 188.169 45.32 188.169 47.096C188.169 48.86 186.921 50.144 185.217 50.144C183.513 50.144 182.265 48.86 182.265 47.096ZM183.105 47.084C183.105 48.452 183.969 49.4 185.217 49.4C186.453 49.4 187.329 48.452 187.329 47.084C187.329 45.74 186.453 44.78 185.217 44.78C183.969 44.78 183.105 45.74 183.105 47.084ZM191.929 50.144C190.225 50.144 189.085 48.92 189.085 47.096C189.085 45.284 190.213 44.036 191.869 44.036C193.441 44.036 194.509 45.152 194.509 46.796V47.204H189.889C189.949 48.62 190.693 49.436 191.941 49.436C192.889 49.436 193.501 49.028 193.717 48.26H194.509C194.197 49.484 193.297 50.144 191.929 50.144ZM191.869 44.744C190.777 44.744 190.057 45.464 189.913 46.604H193.681C193.681 45.488 192.961 44.744 191.869 44.744ZM195.341 48.368H196.133C196.133 49.04 196.637 49.46 197.453 49.46C198.353 49.46 198.881 49.076 198.881 48.452C198.881 47.972 198.641 47.696 197.957 47.528L196.961 47.276C195.953 47.024 195.461 46.496 195.461 45.704C195.461 44.684 196.313 44.036 197.561 44.036C198.785 44.036 199.577 44.708 199.613 45.788H198.809C198.785 45.116 198.317 44.72 197.537 44.72C196.721 44.72 196.265 45.068 196.265 45.692C196.265 46.136 196.577 46.448 197.213 46.604L198.209 46.856C199.217 47.108 199.673 47.576 199.673 48.416C199.673 49.46 198.785 50.144 197.465 50.144C196.157 50.144 195.341 49.448 195.341 48.368ZM205.192 49.988H204.364V41.252H205.192V45.2C205.564 44.504 206.272 44.036 207.244 44.036C208.768 44.036 209.452 44.984 209.452 46.448V50H208.624V46.628C208.624 45.272 207.988 44.792 207.088 44.792C205.84 44.792 205.192 45.716 205.192 46.832V49.988ZM213.538 50.144C211.834 50.144 210.694 48.92 210.694 47.096C210.694 45.284 211.822 44.036 213.478 44.036C215.05 44.036 216.118 45.152 216.118 46.796V47.204H211.498C211.558 48.62 212.302 49.436 213.55 49.436C214.498 49.436 215.11 49.028 215.326 48.26H216.118C215.806 49.484 214.906 50.144 213.538 50.144ZM213.478 44.744C212.386 44.744 211.666 45.464 211.522 46.604H215.29C215.29 45.488 214.57 44.744 213.478 44.744ZM220.478 44.12V44.864H220.022C218.954 44.864 218.27 45.584 218.27 46.688V50H217.442V44.192H218.222L218.282 45.092C218.51 44.468 219.122 44.06 219.938 44.06C220.118 44.06 220.274 44.072 220.478 44.12ZM223.792 50.144C222.088 50.144 220.948 48.92 220.948 47.096C220.948 45.284 222.076 44.036 223.732 44.036C225.304 44.036 226.372 45.152 226.372 46.796V47.204H221.752C221.812 48.62 222.556 49.436 223.804 49.436C224.752 49.436 225.364 49.028 225.58 48.26H226.372C226.06 49.484 225.16 50.144 223.792 50.144ZM223.732 44.744C222.64 44.744 221.92 45.464 221.776 46.604H225.544C225.544 45.488 224.824 44.744 223.732 44.744Z" fill="#F04438"/>
</svg>
