<svg width="44" height="36" viewBox="0 0 44 36" fill="none" xmlns="http://www.w3.org/2000/svg">
<rect width="44" height="36" rx="4" fill="#4478FF"/>
<path d="M25.3524 15.7902H29.5124L26.8616 13.1377C26.0081 12.2843 24.9451 11.6705 23.7792 11.3582C22.6134 11.0459 21.3859 11.046 20.2201 11.3585C19.0543 11.671 17.9914 12.2849 17.1381 13.1384C16.2848 13.992 15.6712 15.0551 15.3591 16.221M14.4874 24.3702V20.2102M14.4874 20.2102H18.6474M14.4874 20.2102L17.1374 22.8627C17.9908 23.7161 19.0539 24.3299 20.2197 24.6422C21.3856 24.9545 22.6131 24.9544 23.7788 24.6419C24.9446 24.3294 26.0076 23.7155 26.8609 22.862C27.7142 22.0084 28.3278 20.9452 28.6399 19.7794M29.5124 11.6302V15.7885" stroke="white" stroke-width="1.5" stroke-linecap="round" stroke-linejoin="round"/>
</svg>
